<?xml version="1.0" encoding="utf-8"?>
<svg xmlns="http://www.w3.org/2000/svg" width="496" height="496" class="segno"><g transform="scale(16)"><path fill="#fff" d="M0 0h31v31h-31z"/><path class="qrline" stroke="#000" d="M1 1.5h7m2 0h1m1 0h5m3 0h1m2 0h7m-29 1h1m5 0h1m2 0h2m1 0h1m2 0h4m3 0h1m5 0h1m-29 1h1m1 0h3m1 0h1m2 0h1m1 0h1m3 0h1m1 0h1m4 0h1m1 0h3m1 0h1m-29 1h1m1 0h3m1 0h1m3 0h1m3 0h1m3 0h1m3 0h1m1 0h3m1 0h1m-29 1h1m1 0h3m1 0h1m3 0h2m1 0h1m1 0h1m2 0h1m3 0h1m1 0h3m1 0h1m-29 1h1m5 0h1m1 0h6m1 0h1m1 0h1m1 0h2m1 0h1m5 0h1m-29 1h7m1 0h1m1 0h1m1 0h1m1 0h1m1 0h1m1 0h1m1 0h1m1 0h7m-14 1h1m1 0h1m2 0h1m-21 1h1m2 0h1m1 0h2m1 0h4m1 0h2m3 0h1m1 0h2m1 0h1m-23 1h1m2 0h2m2 0h2m2 0h1m3 0h1m3 0h3m2 0h1m2 0h1m-28 1h1m3 0h3m2 0h2m1 0h1m2 0h2m1 0h1m2 0h2m1 0h3m-27 1h2m5 0h1m2 0h1m1 0h1m5 0h3m4 0h2m-27 1h4m1 0h1m1 0h3m1 0h2m2 0h2m1 0h5m1 0h1m1 0h2m-27 1h1m1 0h1m4 0h1m1 0h3m5 0h3m-20 1h9m3 0h1m2 0h2m1 0h3m1 0h5m-29 1h2m2 0h2m1 0h1m1 0h1m1 0h1m1 0h1m1 0h1m1 0h2m1 0h1m2 0h3m1 0h1m-24 1h3m2 0h3m1 0h2m2 0h1m1 0h3m5 0h1m-24 1h2m1 0h1m3 0h1m1 0h2m1 0h2m4 0h2m1 0h1m2 0h1m-29 1h1m2 0h4m3 0h2m2 0h1m1 0h2m2 0h1m1 0h1m4 0h2m-26 1h1m1 0h1m2 0h1m3 0h1m2 0h1m1 0h5m5 0h2m-29 1h1m1 0h2m1 0h2m2 0h1m1 0h2m5 0h7m1 0h1m-19 1h1m2 0h2m3 0h1m2 0h2m3 0h1m1 0h3m-29 1h7m3 0h1m1 0h1m4 0h1m2 0h1m1 0h1m1 0h1m2 0h1m-28 1h1m5 0h1m1 0h1m1 0h1m3 0h1m1 0h1m1 0h3m3 0h4m-28 1h1m1 0h3m1 0h1m2 0h1m2 0h1m2 0h3m2 0h5m-25 1h1m1 0h3m1 0h1m1 0h1m2 0h1m1 0h1m3 0h1m1 0h9m-28 1h1m1 0h3m1 0h1m2 0h6m3 0h2m1 0h1m2 0h3m1 0h1m-29 1h1m5 0h1m2 0h2m2 0h1m2 0h3m1 0h3m4 0h1m-28 1h7m1 0h5m2 0h1m1 0h1m1 0h2m2 0h1m1 0h1m1 0h1"/></g></svg>
